# xmcd
#
# Track frame offsets:
#	150
#	17925
#	35645
#	46639
#	61370
#	81032
#	95550
#	111342
#	130355
#	152187
#	170155
#	189830
#	204762
#	221467
#
# Disc length: 3177 seconds
#
# Revision: 2
# Processed by: cddbd v1.5.2PL0 Copyright (c) Steve Scherf et al.
# Submitted via: EZCDAudioConverter 7.1.0.1
#
DISCID=bd0c670e
DTITLE=COLUMBIA - AS 14 MAIS DO SABADÃO (729.057 2-479377) COLUMBIA - 1998
DYEAR=1998
DGENRE=POP
TTITLE0=ARAKETU  - ARAKETU BOM DEMAIS (BY GILMAR SINISTRO)
TTITLE1=GERA SAMBA - POT POURRI - É O TCHAN - PAU QUE NASCE TORTO - MELÔ DO TC
TTITLE1=HAN (BY GILMAR SINISTRO)
TTITLE2=TIRIRICA - FLORENTINA (BY GILMAR SINISTRO)
TTITLE3=MARTINHO DA VILA - MULHERES (BY GILMAR SINISTRO)
TTITLE4=LATINO - EU AMO VOCÊ (BY GILMAR SINISTRO)
TTITLE5=COMPANHIA DO PAGODE - NA BOQUINHA DA GARRAFA (BY GILMAR SINISTRO)
TTITLE6=ASA DE AUIA - XÔ SATANÁS (BY GILMAR SINISTRO)
TTITLE7=KATINGUELÊ - NO COMPASSO DO CRIADOR (BY GILMAR SINISTRO)
TTITLE8=DONATO and ESTEFANO - ESTOY ENAMORADO (VOZ DE INSPIRACION Y PART. ESP. D
TTITLE8=E JULIO IGLESIAS) (BY GILMAR SINISTRO)
TTITLE9=ZEZÉ DI CAMARGO and LUCIANO - PÃO DE MEL (BY GILMAR SINISTRO)
TTITLE10=RICKY MARTIN - MARIA (BY GILMAR SINISTRO)
TTITLE11=ART POPULAR - BOM BOCADO (BY GILMAR SINISTRO)
TTITLE12=SÓ PRA CONTRARIAR - TÃO SÓ (BY GILMAR SINISTRO)
TTITLE13=MAURICIO MATTAR - NADA APAGA ESSA PAIXÃO (BY GILMAR SINISTRO)
EXTD=
EXTT0=
EXTT1=
EXTT2=
EXTT3=
EXTT4=
EXTT5=
EXTT6=
EXTT7=
EXTT8=
EXTT9=
EXTT10=
EXTT11=
EXTT12=
EXTT13=
PLAYORDER=
